<svg viewBox="0 0 32 32" xmlns="http://www.w3.org/2000/svg">
  <circle cx="16" cy="16" r="16" fill="#F7931A"/>
  <path d="M22.5 14.4c.3-2.1-1.3-3.2-3.4-4l.7-2.8-1.7-.4-.7 2.7c-.5-.1-.9-.2-1.4-.3l.7-2.7-1.7-.4-.7 2.8c-.4-.1-.8-.2-1.1-.3v-.1l-2.4-.6-.5 1.9s1.3.3 1.2.3c.7.2.8.6.8 1l-.8 3.2c0 0 .1 0 .2.1h-.2l-1.2 4.7c-.1.2-.3.6-.8.4 0 0-1.2-.3-1.2-.3l-.9 2 2.3.6c.4.1.8.2 1.3.3l-.7 2.9 1.7.4.7-2.8c.5.1.9.2 1.4.3l-.7 2.8 1.7.4.7-2.9c3 .6 5.2.3 6.1-2.4.8-2.1 0-3.4-1.6-4.2 1.1-.3 2-1.1 2.2-2.7zm-4 5.5c-.5 2.1-4.2 1-5.4.7l1-3.9c1.2.3 5 .9 4.4 3.2zm.6-5.6c-.5 1.9-3.5.9-4.5.7l.9-3.6c1 .2 4.1.7 3.6 2.9z" fill="#fff"/>
</svg>

