<svg viewBox="0 0 32 32" xmlns="http://www.w3.org/2000/svg">
  <circle cx="16" cy="16" r="16" fill="#F6921A"/>
  <path d="M16 7c-4.97 0-9 4.03-9 9s4.03 9 9 9 9-4.03 9-9-4.03-9-9-9zm0 16.2c-3.98 0-7.2-3.22-7.2-7.2S12.02 8.8 16 8.8s7.2 3.22 7.2 7.2-3.22 7.2-7.2 7.2z" fill="#fff"/>
  <path d="M16 10.6c-2.98 0-5.4 2.42-5.4 5.4s2.42 5.4 5.4 5.4 5.4-2.42 5.4-5.4-2.42-5.4-5.4-5.4zm0 9c-1.99 0-3.6-1.61-3.6-3.6s1.61-3.6 3.6-3.6 3.6 1.61 3.6 3.6-1.61 3.6-3.6 3.6z" fill="#fff"/>
  <circle cx="16" cy="16" r="1.8" fill="#fff"/>
</svg>

