<svg viewBox="0 0 32 32" xmlns="http://www.w3.org/2000/svg">
  <defs>
    <linearGradient id="sol-grad" x1="0%" y1="0%" x2="100%" y2="100%">
      <stop offset="0%" style="stop-color:#00FFA3"/>
      <stop offset="100%" style="stop-color:#DC1FFF"/>
    </linearGradient>
  </defs>
  <circle cx="16" cy="16" r="16" fill="url(#sol-grad)"/>
  <path d="M10.4 19.4c.1-.1.3-.2.4-.2h13.1c.3 0 .4.3.2.5l-2.5 2.5c-.1.1-.3.2-.4.2H8.1c-.3 0-.4-.3-.2-.5l2.5-2.5zm0-6.7c.1-.1.3-.2.4-.2h13.1c.3 0 .4.3.2.5l-2.5 2.5c-.1.1-.3.2-.4.2H8.1c-.3 0-.4-.3-.2-.5l2.5-2.5zm11.7-3.1c-.1-.1-.3-.2-.4-.2H8.6c-.3 0-.4.3-.2.5l2.5 2.5c.1.1.3.2.4.2h13.1c.3 0 .4-.3.2-.5l-2.5-2.5z" fill="#fff"/>
</svg>

