<svg viewBox="0 0 32 32" xmlns="http://www.w3.org/2000/svg">
  <circle cx="16" cy="16" r="16" fill="#2775CA"/>
  <path d="M16 6C10.48 6 6 10.48 6 16s4.48 10 10 10 10-4.48 10-10S21.52 6 16 6zm0 18c-4.41 0-8-3.59-8-8s3.59-8 8-8 8 3.59 8 8-3.59 8-8 8z" fill="#fff"/>
  <path d="M17 13.5v-1.75h-2V13.5c-1.42.26-2.5 1.35-2.5 2.75 0 1.53 1.24 2.77 2.77 2.77h1.96c.62 0 1.13.51 1.13 1.13 0 .62-.51 1.13-1.13 1.13h-2.46c-.62 0-1.13-.51-1.13-1.13H12c0 1.4 1.08 2.49 2.5 2.75v1.75h2V22.9c1.42-.26 2.5-1.35 2.5-2.75 0-1.53-1.24-2.77-2.77-2.77h-1.96c-.62 0-1.13-.51-1.13-1.13 0-.62.51-1.13 1.13-1.13h2.46c.62 0 1.13.51 1.13 1.13H20c0-1.4-1.08-2.49-2.5-2.75z" fill="#fff"/>
</svg>

