<svg xmlns="http://www.w3.org/2000/svg" width="48" height="48" baseProfile="tiny-ps" version="1.2"><defs><linearGradient id="a" x1="47" x2="1" y1="39.514" y2="8.486" gradientUnits="userSpaceOnUse"><stop offset="0" stop-color="#7101e8"/><stop offset="1" stop-color="#a589c3"/></linearGradient></defs><path d="M47 3v42c0 1.1-.9 2-2 2H3c-1.1 0-2-.9-2-2V3c0-1.1.9-2 2-2h42c1.1 0 2 .9 2 2Z" style="fill:url(#a)"/><path fill-rule="evenodd" d="M28.62 40v-2.39l3.63-.39L29.86 30H17.53l-2.35 7.22 3.58.39V40H8.6v-2.34l1.9-.49c.71-.18.93-.31 1.1-.84L21.33 8h5.12l9.91 28.38c.17.53.52.61 1.06.75l1.98.48V40H28.62Zm-4.86-28.55L18.54 27h10.34l-5.12-15.55Z" style="fill:#fff"/></svg>