<?xml version="1.0" encoding="UTF-8"?><svg width="24px" height="24px" stroke-width="1.5" viewBox="0 0 24 24" fill="none" xmlns="http://www.w3.org/2000/svg" color="#000000"><path d="M12 15C13.6569 15 15 13.6569 15 12C15 10.3431 13.6569 9 12 9C10.3431 9 9 10.3431 9 12C9 13.6569 10.3431 15 12 15Z" stroke="#000000" stroke-width="1.5" stroke-linecap="round" stroke-linejoin="round"></path><path d="M19.622 10.395L21 10.5L21 13.5L19.622 13.605C19.486 14.283 19.254 14.925 18.939 15.519L19.92 16.665L17.79 18.795L16.545 17.748C15.951 18.063 15.309 18.295 14.631 18.431L14.5 20L11.5 20L11.369 18.622C10.691 18.486 10.049 18.254 9.455 17.939L8.21 18.795L6.08 16.665L7.061 15.519C6.746 14.925 6.514 14.283 6.378 13.605L5 13.5L5 10.5L6.378 10.395C6.514 9.717 6.746 9.075 7.061 8.481L6.08 7.335L8.21 5.205L9.455 6.252C10.049 5.937 10.691 5.705 11.369 5.569L11.5 4L14.5 4L14.631 5.378C15.309 5.514 15.951 5.746 16.545 6.061L17.79 5.205L19.92 7.335L18.939 8.481C19.254 9.075 19.486 9.717 19.622 10.395Z" stroke="#000000" stroke-width="1.5" stroke-linecap="round" stroke-linejoin="round"></path></svg>