<svg height="512pt" viewBox="0 -63 512 512" width="512pt" xmlns="http://www.w3.org/2000/svg"
    xmlns:xlink="http://www.w3.org/1999/xlink">
    <linearGradient id="a">
        <stop offset="0" stop-color="#ffd00d" />
        <stop offset=".2378" stop-color="#ffcb0e" />
        <stop offset=".5353" stop-color="#fb1" />
        <stop offset=".8632" stop-color="#ffa215" />
        <stop offset="1" stop-color="#ff9517" />
    </linearGradient>
    <linearGradient id="b" gradientUnits="userSpaceOnUse" x1="405.1562148748" x2="313.2466538138" xlink:href="#a"
        y1="-41.240587041" y2="205.402467958" />
    <linearGradient id="c">
        <stop offset="0" stop-color="#ff9517" stop-opacity="0" />
        <stop offset=".3074" stop-color="#ee8421" stop-opacity=".305882" />
        <stop offset=".6784" stop-color="#e07728" stop-opacity=".678431" />
        <stop offset="1" stop-color="#db722b" />
    </linearGradient>
    <linearGradient id="d" gradientUnits="userSpaceOnUse" x1="410.9455318722" x2="243.3929579162" xlink:href="#c"
        y1="318.9330955642" y2="151.3805216082" />
    <linearGradient id="e" gradientUnits="userSpaceOnUse" x1="282.3292695486" x2="152.1828293126" xlink:href="#c"
        y1="112.3220326684" y2="-17.8243071754" />
    <linearGradient id="f" gradientUnits="userSpaceOnUse" x1="258.061663827" x2="258.061663827" y1="-99.3071343444"
        y2="390.4156549068">
        <stop offset="0" stop-color="#fffcf8" />
        <stop offset=".1875" stop-color="#faf8f6" />
        <stop offset=".4041" stop-color="#eceef2" />
        <stop offset=".6353" stop-color="#d5dcea" />
        <stop offset=".875" stop-color="#b5c4df" />
        <stop offset="1" stop-color="#a1b5d8" />
    </linearGradient>
    <linearGradient id="g">
        <stop offset="0" stop-color="#a1b5d8" stop-opacity="0" />
        <stop offset=".6699" stop-color="#8190a4" stop-opacity=".670588" />
        <stop offset="1" stop-color="#748290" />
    </linearGradient>
    <linearGradient id="h" gradientUnits="userSpaceOnUse" x1="482.8452208058" x2="355.3655989706" xlink:href="#g"
        y1="248.2029757606" y2="236.152598818" />
    <linearGradient id="i" gradientUnits="userSpaceOnUse" x1="281.0261787926" x2="162.5676996572" xlink:href="#g"
        y1="111.0189419124" y2="-7.439537223" />

    <linearGradient id="k" gradientUnits="userSpaceOnUse" x1="234.3631814872" x2="234.3631814872" xlink:href="#a"
        y1="197.4467876768" y2="408.5367481834" />
    <path
        d="m476.703125 386.632812h-339.398437c-8.976563 0-16.253907-7.277343-16.253907-16.253906v-327.058594c0-23.925781 19.394531-43.320312 43.320313-43.320312h304.308594c23.925781 0 43.320312 19.394531 43.320312 43.320312v308.015626c0 19.496093-15.800781 35.296874-35.296875 35.296874zm0 0"
        fill="url(#b)" />
    <path
        d="m137.304688 386.632812h339.398437c19.496094 0 35.296875-15.804687 35.296875-35.296874v-279.355469l-33.753906-33.753907c-5.511719-6.152343-13.515625-10.027343-22.425782-10.027343h-332.050781c-1.753906 4.707031-2.71875 9.800781-2.71875 15.121093v327.058594c0 8.976563 7.277344 16.253906 16.253907 16.253906zm0 0"
        fill="url(#d)" />
    <path
        d="m455.820312 386.632812h-395.515624c-16.625 0-30.101563-13.476562-30.101563-30.101562v-298.234375c0-16.625 13.476563-30.101563 30.101563-30.101563h395.515624c16.625 0 30.101563 13.476563 30.101563 30.101563v298.234375c0 16.625-13.476563 30.101562-30.101563 30.101562zm0 0"
        fill="url(#f)" />
    <path
        d="m444.03125 77.308594c-8.242188-8.730469-19.917969-14.1875-32.875-14.1875h-380.953125v293.410156c0 16.625 13.476563 30.101562 30.101563 30.101562h395.515624c16.625 0 30.101563-13.476562 30.101563-30.101562v-237.332031zm0 0"
        fill="url(#h)" />
    <path
        d="m139.394531 31.628906c-5.976562-18.757812-23.402343-31.492187-43.085937-31.492187h-51.085938c-24.976562 0-45.222656 20.246093-45.222656 45.222656v296.613281c0 24.664063 19.996094 44.660156 44.660156 44.660156h424.066406c-6.820312 0-12.347656-5.527343-12.347656-12.347656v-265.941406c0-24.972656-20.246094-45.222656-45.222656-45.222656h-228.671875c-19.6875 0-37.113281-12.734375-43.089844-31.492188zm0 0"
        fill="url(#k)" />
</svg>