<?xml version="1.0" encoding="utf-8"?>
<svg height="512" viewBox="0 0 60 60" width="512" xmlns="http://www.w3.org/2000/svg">
  <g id="Icons">
    <path d="M 58.836 14.473 L 58.836 45.473 C 58.836 48.787 56.15 51.473 52.836 51.473 L 6.836 51.473 C 3.522 51.473 0.836 48.787 0.836 45.473 L 0.836 14.473 C 0.836 11.159 3.522 8.473 6.836 8.473 L 52.836 8.473 C 56.15 8.473 58.836 11.159 58.836 14.473 Z" style="fill: rgb(101, 36, 174);"/>
    <path d="M 58.836 22.163 L 58.836 45.536 C 58.836 48.815 56.175 51.473 52.891 51.473 L 14.074 51.252 C 32.248 46.678 34.721 26.263 58.836 22.163 Z" style="fill: rgb(9, 183, 233);"/>
    <rect height="5.838" rx="1.182" width="7.938" x="6.356" y="13.338" style="fill: rgb(255, 221, 0);" ry="1.182"/>
    <rect height="5.838" rx="1.182" width="7.938" x="6.436" y="21.644" style="fill: rgb(255, 221, 0);" ry="1.182"/>
    <rect height="5.838" rx="1.182" width="7.938" x="6.52" y="30.219" style="fill: rgb(255, 220, 4);" ry="1.182"/>
  </g>
</svg>