<svg xmlns="http://www.w3.org/2000/svg" xmlns:xlink="http://www.w3.org/1999/xlink" x="0px" y="0px" width="48px"
    height="48px" viewBox="0 0 48 48">
    <g stroke-width="3" transform="translate(0.5, 0.5)">
        <path d="M42,26V41a4,4,0,0,1-4,4H10a4,4,0,0,1-4-4V26" fill="none" stroke="#ffffff" stroke-linecap="square"
            stroke-miterlimit="10" stroke-width="3" stroke-linejoin="miter"></path>
        <rect x="2" y="12.003" width="44" height="8" fill="none" stroke="#ffffff" stroke-linecap="square"
            stroke-miterlimit="10" stroke-width="3" stroke-linejoin="miter"></rect>
        <polyline data-color="color-2" points="28 12.003 28 45 20 45 20 12.003" fill="none" stroke="#ffffff"
            stroke-linecap="square" stroke-miterlimit="10" stroke-width="3" stroke-linejoin="miter"></polyline>
        <path data-color="color-2" d="M8,7a5.174,5.174,0,0,1,5.334-5C21.222,2,24,12,24,12H13.334A5.175,5.175,0,0,1,8,7Z"
            fill="none" stroke="#ffffff" stroke-linecap="square" stroke-miterlimit="10" stroke-width="3"
            stroke-linejoin="miter"></path>
        <path data-color="color-2"
            d="M34.666,12H24S26.778,2,34.666,2A5.174,5.174,0,0,1,40,7,5.175,5.175,0,0,1,34.666,12Z" fill="none"
            stroke="#ffffff" stroke-linecap="square" stroke-miterlimit="10" stroke-width="3" stroke-linejoin="miter">
        </path>
    </g>
</svg>