<svg id="Capa_1" enable-background="new 0 0 512 512" height="512" viewBox="0 0 512 512" width="512" xmlns="http://www.w3.org/2000/svg"><g><path d="m435.327 202.917c0-12.674-10.275-22.949-22.949-22.949h-17.041c-12.674 0-22.949 10.275-22.949 22.949v-.766-27.291c0-12.674-10.275-22.949-22.949-22.949h-17.041c-12.674 0-22.949 10.275-22.949 22.949v-.766-13.04c0-12.674-10.275-22.949-22.949-22.949h-17.041c-12.674 0-22.949 10.275-22.949 22.949v8.521-75.959l-4.781-10.989 4.781-51.157c0-17.381-14.09-31.47-31.47-31.47-17.38 0-31.469 14.089-31.469 31.469v224.671l-10.569-18.306c-13.712-23.75-44.087-31.882-67.832-18.154-6.347 3.67-8.508 11.805-4.842 18.155l98.207 170.1c3.32 6.168 7.139 12.028 11.403 17.525 10.301 13.278 15.832 29.634 15.834 46.439l.005 38.084c0 1.113.903 2.016 2.016 2.016h163.311c1.113 0 2.016-.903 2.016-2.016l.005-38.064c.002-16.648 5.294-32.968 15.548-46.083 16.7-21.361 26.654-48.251 26.653-77.467v-145.452z" fill="#ffcbbe"/><g fill="#eaac9d"><path d="m412.378 179.968h-17.041c-.447 0-.891.013-1.332.038.076.759.115 1.528.115 2.307v145.452c0 27.009-8.506 52.03-22.985 72.532-12.291 17.405-19.215 38.026-19.218 59.333l-.001 6.023c-.002 14.217-11.528 25.742-25.745 25.742h-100.397l.003 18.588c0 1.113.903 2.016 2.016 2.016h163.311c1.113 0 2.016-.902 2.016-2.016l.005-38.064c.002-16.648 5.294-32.968 15.548-46.083 16.7-21.361 26.654-48.251 26.653-77.467v-145.452c.001-12.674-10.274-22.949-22.948-22.949z"/><path d="m238.817 247.526c4.267 0 7.726-3.459 7.726-7.726l-.023-146.184-2.754-7.547 2.744-54.6c0-11.517-6.187-21.589-15.419-27.074v235.405c-.001 4.267 3.458 7.726 7.726 7.726z"/><path d="m301.756 247.526c4.268 0 7.726-3.459 7.726-7.726v-66.183c-.022.412-.033.826-.033 1.244v-13.806c0-10.037-6.443-18.568-15.419-21.685v100.43c-.001 4.267 3.458 7.726 7.726 7.726z"/><path d="m364.694 247.526c4.268 0 7.726-3.459 7.726-7.726v-38.117c-.022.409-.033.821-.033 1.235v-28.058c0-10.037-6.444-18.569-15.42-21.685v86.625c.001 4.267 3.46 7.726 7.727 7.726z"/><path d="m175.877 297.235c4.267 0 7.726-3.459 7.726-7.726l-.033-33.369-10.569-18.306c-1.441-2.496-3.068-4.82-4.85-6.964v58.639c0 4.268 3.459 7.726 7.726 7.726z"/></g><path d="m183.571 31.469h62.941v62.147h-62.941z" fill="#da4a54"/><path d="m338.974 27.694c-19.213-19.214-50.479-19.213-69.695 0l-23.798 23.798v22.1l23.798 23.797c9.308 9.308 21.684 14.435 34.848 14.435s25.539-5.127 34.847-14.435 14.435-21.683 14.435-34.847-5.127-25.539-14.435-34.848zm-18.211 51.484c-4.786 4.786-11.272 7.257-18.095 6.847-5.886-.353-11.387-3.057-15.557-7.227l-15.509-15.508c-.413-.413-.413-1.083 0-1.497l15.887-15.888c10.176-10.174 27.43-9.064 36.059 3.335 1.898 2.727 3.19 5.858 3.749 9.133 1.333 7.796-1.118 15.389-6.534 20.805z" fill="#a71f29"/><path d="m184.601 51.492-23.798-23.798c-19.215-19.215-50.479-19.213-69.695 0-9.308 9.309-14.435 21.684-14.435 34.848s5.127 25.539 14.435 34.847 21.684 14.435 34.848 14.435c13.163 0 25.539-5.127 34.848-14.435l23.798-23.797v-22.1zm-26.121 11.798-15.51 15.509c-4.17 4.17-9.672 6.874-15.559 7.226-6.823.408-13.307-2.062-18.092-6.848 0 0 0 0-.001 0-5.421-5.421-7.87-13.021-6.531-20.823.56-3.262 1.845-6.38 3.734-9.098 4.74-6.821 12.086-10.231 19.434-10.231 6.024 0 12.05 2.294 16.636 6.879l15.888 15.888c.414.415.414 1.085.001 1.498z" fill="#d82e3d"/><path d="m231.09 31.469h15.419v62.147h-15.419z" fill="#d82e3d"/><path d="m246.511 54.828h-31.471c-4.267 0-7.726 3.459-7.726 7.726s3.459 7.726 7.726 7.726h31.471z" fill="#d82e3d"/><path d="m231.09 54.828h15.419v15.453h-15.419z" fill="#c32430"/></g></svg>