<?xml version="1.0"?>
<svg width="48" height="48" xmlns="http://www.w3.org/2000/svg" xmlns:svg="http://www.w3.org/2000/svg">
 <g class="layer">
  <title>Layer 1</title>
  <g id="svg_1">
   <path d="m41.9,0.5l-35.81,0c-3.09,0 -5.6,2.51 -5.6,5.6l0,35.81c0,3.09 2.51,5.6 5.6,5.6l35.81,0c3.09,0 5.6,-2.51 5.6,-5.6l0,-35.81c0,-3.09 -2.51,-5.6 -5.6,-5.6z" fill="url(#nc-ui-5-0_linear_207_127)" id="svg_2"/>
   <path d="m13.93,32.95l-6.71,0c-0.62,0 -1.12,0.5 -1.12,1.12l0,6.71c0,0.62 0.5,1.12 1.12,1.12l6.71,0c0.62,0 1.12,-0.5 1.12,-1.12l0,-6.71c0,-0.62 -0.5,-1.12 -1.12,-1.12z" fill="url(#nc-ui-5-1_linear_207_127)" id="svg_3"/>
   <path d="m13.93,19.52l-6.71,0c-0.62,0 -1.12,0.5 -1.12,1.12l0,6.71c0,0.62 0.5,1.12 1.12,1.12l6.71,0c0.62,0 1.12,-0.5 1.12,-1.12l0,-6.71c0,-0.62 -0.5,-1.12 -1.12,-1.12z" fill="url(#nc-ui-5-2_linear_207_127)" id="svg_4"/>
   <path d="m13.93,6.1l-6.71,0c-0.62,0 -1.12,0.5 -1.12,1.12l0,6.71c0,0.62 0.5,1.12 1.12,1.12l6.71,0c0.62,0 1.12,-0.5 1.12,-1.12l0,-6.71c0,-0.62 -0.5,-1.12 -1.12,-1.12z" fill="url(#nc-ui-5-3_linear_207_127)" id="svg_5"/>
   <path d="m27.36,32.95l-6.71,0c-0.62,0 -1.12,0.5 -1.12,1.12l0,6.71c0,0.62 0.5,1.12 1.12,1.12l6.71,0c0.62,0 1.12,-0.5 1.12,-1.12l0,-6.71c0,-0.62 -0.5,-1.12 -1.12,-1.12z" fill="url(#nc-ui-5-4_linear_207_127)" id="svg_6"/>
   <path d="m27.36,19.52l-6.71,0c-0.62,0 -1.12,0.5 -1.12,1.12l0,6.71c0,0.62 0.5,1.12 1.12,1.12l6.71,0c0.62,0 1.12,-0.5 1.12,-1.12l0,-6.71c0,-0.62 -0.5,-1.12 -1.12,-1.12z" fill="url(#nc-ui-5-5_linear_207_127)" id="svg_7"/>
   <path d="m27.36,6.1l-6.71,0c-0.62,0 -1.12,0.5 -1.12,1.12l0,6.71c0,0.62 0.5,1.12 1.12,1.12l6.71,0c0.62,0 1.12,-0.5 1.12,-1.12l0,-6.71c0,-0.62 -0.5,-1.12 -1.12,-1.12z" fill="url(#nc-ui-5-6_linear_207_127)" id="svg_8"/>
   <path d="m40.79,32.95l-6.71,0c-0.62,0 -1.12,0.5 -1.12,1.12l0,6.71c0,0.62 0.5,1.12 1.12,1.12l6.71,0c0.62,0 1.12,-0.5 1.12,-1.12l0,-6.71c0,-0.62 -0.5,-1.12 -1.12,-1.12z" fill="url(#nc-ui-5-7_linear_207_127)" id="svg_9"/>
   <path d="m40.79,19.52l-6.71,0c-0.62,0 -1.12,0.5 -1.12,1.12l0,6.71c0,0.62 0.5,1.12 1.12,1.12l6.71,0c0.62,0 1.12,-0.5 1.12,-1.12l0,-6.71c0,-0.62 -0.5,-1.12 -1.12,-1.12z" fill="url(#nc-ui-5-8_linear_207_127)" id="svg_10"/>
   <path d="m40.79,6.1l-6.71,0c-0.62,0 -1.12,0.5 -1.12,1.12l0,6.71c0,0.62 0.5,1.12 1.12,1.12l6.71,0c0.62,0 1.12,-0.5 1.12,-1.12l0,-6.71c0,-0.62 -0.5,-1.12 -1.12,-1.12z" fill="url(#nc-ui-5-9_linear_207_127)" id="svg_11"/>
   <defs transform="translate(45 45) scale(1.04762 1.02381) translate(-45 -45) translate(0.954543 1.95349) scale(1.02273 1.02326) translate(-0.954543 -1.95349) translate(0.933331 43.9091) scale(1.03056 1.03409) translate(-0.933331 -43.9091) translate(42.9057 0.461539) scale(1.01078 1.02747) translate(-42.9057 -0.461539) translate(0.447999 0.449198) scale(1 1.00535) translate(-0.447999 -0.449198) translate(0.447999 0.446809) scale(1.00267 1) translate(-0.447999 -0.446809)">
    <linearGradient id="nc-ui-5-0_linear_207_127" x1="0.5" x2="0.5" y1="0" y2="1">
     <stop stop-color="#e5e8f2"/>
     <stop offset="1" stop-color="#d5dbea"/>
    </linearGradient>
    <linearGradient id="nc-ui-5-1_linear_207_127" x1="0.5" x2="0.5" y1="0" y2="1">
     <stop stop-color="#5a8be4"/>
     <stop offset="1" stop-color="#1552c5"/>
    </linearGradient>
    <linearGradient id="nc-ui-5-2_linear_207_127" x1="0.5" x2="0.5" y1="0" y2="1">
     <stop stop-color="#5a8be4"/>
     <stop offset="1" stop-color="#1552c5"/>
    </linearGradient>
    <linearGradient id="nc-ui-5-3_linear_207_127" x1="0.5" x2="0.5" y1="0" y2="1">
     <stop stop-color="#5a8be4"/>
     <stop offset="1" stop-color="#1552c5"/>
    </linearGradient>
    <linearGradient id="nc-ui-5-4_linear_207_127" x1="0.5" x2="0.5" y1="0" y2="1">
     <stop stop-color="#5a8be4"/>
     <stop offset="1" stop-color="#1552c5"/>
    </linearGradient>
    <linearGradient id="nc-ui-5-5_linear_207_127" x1="0.5" x2="0.5" y1="0" y2="1">
     <stop stop-color="#5a8be4"/>
     <stop offset="1" stop-color="#1552c5"/>
    </linearGradient>
    <linearGradient id="nc-ui-5-6_linear_207_127" x1="0.5" x2="0.5" y1="0" y2="1">
     <stop stop-color="#5a8be4"/>
     <stop offset="1" stop-color="#1552c5"/>
    </linearGradient>
    <linearGradient id="nc-ui-5-7_linear_207_127" x1="0.5" x2="0.5" y1="0" y2="1">
     <stop stop-color="#5a8be4"/>
     <stop offset="1" stop-color="#1552c5"/>
    </linearGradient>
    <linearGradient id="nc-ui-5-8_linear_207_127" x1="0.5" x2="0.5" y1="0" y2="1">
     <stop stop-color="#5a8be4"/>
     <stop offset="1" stop-color="#1552c5"/>
    </linearGradient>
    <linearGradient id="nc-ui-5-9_linear_207_127" x1="0.5" x2="0.5" y1="0" y2="1">
     <stop stop-color="#5a8be4"/>
     <stop offset="1" stop-color="#1552c5"/>
    </linearGradient>
   </defs>
  </g>
 </g>
</svg>