<svg version="1.2" baseProfile="tiny-ps" xmlns="http://www.w3.org/2000/svg" viewBox="0 0 55 55" width="55" height="55">
	<title>trash-svg</title>
	<style>
		tspan { white-space:pre }
		.s0 { fill: #e6e6e6 } 
		.s1 { fill: #b3b3b3 } 
	</style>
	<g id="Layer">
		<path id="Layer" class="s0" d="m47.9 11.62c0 0.04 0 0.08-0.01 0.12c0 0.04-0.01 0.08-0.01 0.12c0 0.04-0.01 0.08-0.02 0.12l-4.4 36.14c-0.42 4.11-8.6 6.27-16.46 6.27c-7.86 0-16.05-2.16-16.46-6.29l-4.4-36.12c-0.01-0.04-0.01-0.08-0.02-0.12c0-0.04-0.01-0.08-0.01-0.12c0-0.04-0.01-0.08-0.01-0.12c0-0.04 0-0.08 0-0.12c0-5 10.77-7.7 20.9-7.7c10.13 0 20.9 2.7 20.9 7.7c0 0.04 0 0.08 0 0.12z" />
		<path id="Layer" class="s1" d="m27 6c11.59 0 18.7 3.2 18.7 5.5c0 2.3-7.11 5.5-18.7 5.5c-11.59 0-18.7-3.2-18.7-5.5c0-2.3 7.11-5.5 18.7-5.5z" />
	</g>
</svg>