<svg width="1080" height="1080" viewBox="0 0 1080 1080" fill="none" xmlns="http://www.w3.org/2000/svg">
<rect width="1080" height="1080" fill="#141414"/>
<path d="M793.209 532.947L732.073 496.935L706.111 481.861C696.061 475.998 684.336 475.998 674.286 481.861L555.363 550.534C545.314 556.396 533.589 556.396 523.539 550.534L405.454 481.861C395.404 475.998 383.679 475.998 373.629 481.861L347.667 496.935L286.531 532.947C265.594 545.509 265.594 575.658 286.531 587.383L390.379 647.682L525.214 725.567C535.264 731.43 546.989 731.43 557.038 725.567L691.873 647.682L795.722 587.383C814.984 575.658 814.984 545.509 793.209 532.947Z" fill="url(#paint0_linear_6_2921)"/>
<path d="M793.218 406.483L705.283 355.397C695.233 349.534 683.508 349.534 673.458 355.397L554.535 424.07C544.486 429.933 532.761 429.933 522.711 424.07L403.788 355.397C393.738 349.534 382.014 349.534 371.964 355.397L285.703 406.483C264.766 419.045 264.766 449.195 285.703 460.919L347.677 496.931L389.551 521.218L524.386 599.104C534.436 604.966 546.16 604.966 556.21 599.104L691.045 521.218L732.92 496.931L794.893 460.919C814.993 449.195 814.993 419.045 793.218 406.483Z" fill="url(#paint1_linear_6_2921)"/>
<g opacity="0.3">
<path d="M523.555 599.945C533.605 605.808 545.33 605.808 555.38 599.945L690.215 522.06L732.089 497.773L706.127 482.698C696.077 476.836 684.352 476.836 674.302 482.698L555.38 551.372C545.33 557.234 533.605 557.234 523.555 551.372L405.47 481.861C395.42 475.998 383.695 475.998 373.646 481.861L347.684 496.935L389.558 521.222L523.555 599.945Z" fill="#F6921A"/>
</g>
<defs>
<linearGradient id="paint0_linear_6_2921" x1="539.755" y1="730.757" x2="539.755" y2="477.963" gradientUnits="userSpaceOnUse">
<stop stop-color="#F6921A"/>
<stop offset="1" stop-color="#B04200"/>
</linearGradient>
<linearGradient id="paint1_linear_6_2921" x1="539.75" y1="447.142" x2="539.75" y2="604.378" gradientUnits="userSpaceOnUse">
<stop stop-color="#FFEEDC"/>
<stop offset="1" stop-color="#FFC382"/>
</linearGradient>
</defs>
</svg>
