<?xml version="1.0" encoding="UTF-8"?>
<svg id="Layer_1" data-name="Layer 1" xmlns="http://www.w3.org/2000/svg" viewBox="0 0 876.74 149.34">
  <defs>
    <style>
      .cls-1 {
        fill: #fff;
      }
    </style>
  </defs>
  <g>
    <path class="cls-1" d="M203.56,120.82V26.23h60.9v9.56h-50.78v32.88h48.27v9.56h-48.27v33.12h50.78v9.56h-60.9v-.08Z"/>
    <path class="cls-1" d="M279.86,120.82V24.69h9.56v96.13h-9.56Z"/>
    <path class="cls-1" d="M328.61,122.36c-4.29,0-8.18-.81-11.58-2.51-3.4-1.62-6.07-3.89-8.02-6.8-1.94-2.92-2.92-6.16-2.92-9.88s.73-6.8,2.27-9.72,3.89-5.43,7.13-7.45,7.29-3.48,12.31-4.29l26.65-4.45v8.67l-24.38,4.05c-4.94.81-8.42,2.43-10.61,4.7s-3.24,5.02-3.24,8.1,1.21,5.67,3.64,7.77,5.51,3.16,9.31,3.16,8.75-.97,12.15-3c3.48-2.02,6.16-4.7,8.1-8.1s2.92-7.13,2.92-11.34v-17.25c0-4.05-1.46-7.37-4.45-9.88s-6.8-3.81-11.58-3.81-7.77,1.05-10.93,3.08c-3.16,2.11-5.43,4.78-6.96,8.1l-8.67-4.7c1.3-2.92,3.24-5.51,5.99-7.86,2.75-2.35,5.91-4.29,9.48-5.67,3.56-1.38,7.21-2.11,11.01-2.11s9.39.97,13.28,2.92c3.89,1.94,6.88,4.62,8.99,8.1s3.24,7.37,3.24,11.91v46.73h-9.56v-13.61l1.38,1.38c-1.21,2.51-3,4.86-5.51,6.88-2.51,2.11-5.43,3.73-8.75,4.94-3.32,1.21-6.96,1.86-11.01,1.86l.32.08Z"/>
    <path class="cls-1" d="M412.68,122.36c-6.72,0-12.55-1.54-17.66-4.7-5.1-3.16-9.07-7.37-11.91-12.8-2.92-5.35-4.29-11.42-4.29-18.22s1.46-12.8,4.29-18.14c2.92-5.35,6.88-9.56,11.91-12.63,5.1-3.08,10.93-4.62,17.66-4.62s8.18.73,11.91,2.27c3.73,1.54,7.05,3.56,9.88,6.16,2.92,2.59,5.02,5.59,6.48,8.99l-8.67,4.45c-1.7-3.64-4.29-6.64-7.77-8.91s-7.45-3.4-11.91-3.4-8.5,1.13-12.15,3.4c-3.56,2.27-6.4,5.35-8.5,9.23-2.11,3.97-3.08,8.42-3.08,13.36s1.05,9.31,3.08,13.28c2.11,3.97,4.94,7.05,8.5,9.31s7.61,3.4,12.15,3.4,8.42-1.13,11.91-3.4,5.99-5.35,7.77-9.15l8.67,4.7c-1.46,3.32-3.56,6.24-6.48,8.91-2.92,2.59-6.16,4.7-9.88,6.24-3.73,1.54-7.69,2.27-11.91,2.27Z"/>
    <path class="cls-1" d="M457.71,40.24v-13.93h9.56v13.93h-9.56ZM457.71,120.82V52.79h9.56v68.03h-9.56Z"/>
    <path class="cls-1" d="M493.83,42.75v-5.75h9.56v15.71h14.98v9.56h-14.98v38.71c0,2.27.32,4.29,1.05,5.99.65,1.7,1.86,3.08,3.48,4.13s3.89,1.54,6.64,1.54,1.46,0,2.43-.16c.89-.08,1.7-.16,2.43-.24v8.5c-1.05.24-2.19.4-3.4.57-1.3.16-2.27.16-3.08.16-6.07,0-10.77-1.78-14.09-5.35-3.32-3.56-4.94-8.67-4.94-15.23v-38.71h-12.55v-9.56h12.55v-10.04l-.08.16Z"/>
    <path class="cls-1" d="M537.48,148.76c-1.38,0-2.75-.08-4.13-.32-1.38-.24-2.75-.57-4.13-1.05v-8.91c.81.08,1.94.24,3.24.4,1.3.24,2.67.32,3.97.32,4.13,0,7.29-.89,9.56-2.59,2.19-1.7,4.37-5.02,6.48-9.96l4.29-10.12-.24,8.34-28.83-72.08h10.29l23.65,59.53h-2.67l23.49-59.53h10.53l-31.1,76.7c-1.38,3.32-3.08,6.4-5.1,9.39-2.11,3-4.7,5.35-7.77,7.21-3.16,1.78-6.96,2.75-11.42,2.75l-.08-.08Z"/>
    <path class="cls-1" d="M605.51,120.82V26.23h10.12v85.04h41.87v9.56h-52.08.08Z"/>
    <path class="cls-1" d="M691.19,122.36c-4.29,0-8.18-.81-11.58-2.51-3.4-1.62-6.07-3.89-8.02-6.8-1.94-2.92-2.92-6.16-2.92-9.88s.73-6.8,2.27-9.72c1.54-2.92,3.89-5.43,7.13-7.45s7.29-3.48,12.31-4.29l26.65-4.45v8.67l-24.38,4.05c-4.94.81-8.42,2.43-10.61,4.7-2.19,2.27-3.24,5.02-3.24,8.1s1.21,5.67,3.64,7.77,5.51,3.16,9.31,3.16,8.75-.97,12.15-3c3.48-2.02,6.16-4.7,8.1-8.1s2.92-7.13,2.92-11.34v-17.25c0-4.05-1.46-7.37-4.45-9.88s-6.8-3.81-11.58-3.81-7.77,1.05-10.93,3.08c-3.16,2.11-5.43,4.78-6.96,8.1l-8.67-4.7c1.3-2.92,3.24-5.51,5.99-7.86,2.75-2.35,5.91-4.29,9.48-5.67,3.56-1.38,7.21-2.11,11.01-2.11s9.39.97,13.28,2.92c3.89,1.94,6.88,4.62,8.99,8.1s3.24,7.37,3.24,11.91v46.73h-9.56v-13.61l1.38,1.38c-1.21,2.51-3,4.86-5.51,6.88-2.51,2.11-5.43,3.73-8.75,4.94s-6.96,1.86-11.01,1.86l.32.08Z"/>
    <path class="cls-1" d="M778.58,122.36c-5.83,0-11.1-1.3-15.79-3.97-4.7-2.67-8.26-6.48-10.61-11.34l1.54-1.38v15.23h-9.56V24.69h9.56v43.33l-1.54-2.67c2.67-4.29,6.32-7.77,10.85-10.29,4.54-2.51,9.72-3.81,15.55-3.81s12.15,1.54,17.17,4.62c5.02,3.08,8.99,7.29,11.91,12.63s4.37,11.42,4.37,18.3-1.46,12.88-4.37,18.22c-2.92,5.35-6.88,9.64-11.91,12.72s-10.77,4.62-17.17,4.62h0ZM778.01,112.81c4.54,0,8.67-1.13,12.23-3.4,3.56-2.27,6.4-5.43,8.5-9.31,2.11-3.97,3.08-8.34,3.08-13.28s-1.05-9.48-3.08-13.36c-2.11-3.89-4.94-6.96-8.5-9.23-3.56-2.27-7.69-3.4-12.23-3.4s-8.67,1.13-12.39,3.4c-3.64,2.27-6.64,5.43-8.75,9.31-2.19,3.97-3.24,8.34-3.24,13.28s1.05,9.31,3.24,13.28c2.19,3.97,5.1,7.05,8.75,9.31,3.64,2.27,7.77,3.4,12.39,3.4Z"/>
    <path class="cls-1" d="M852.44,122.36c-6.48,0-12.23-1.62-17.17-4.94-4.94-3.32-8.5-7.77-10.69-13.44l8.02-3.81c1.94,4.13,4.7,7.45,8.18,9.88,3.48,2.43,7.37,3.64,11.58,3.64s7.45-.97,10.29-3c2.75-2.02,4.21-4.62,4.21-7.77s-.65-4.29-2.02-5.67-2.92-2.51-4.7-3.24c-1.78-.73-3.32-1.3-4.7-1.62l-9.8-2.75c-6.24-1.78-10.77-4.29-13.61-7.45-2.75-3.24-4.21-6.96-4.21-11.18s1.05-7.45,3.08-10.45c2.02-3,4.78-5.26,8.26-6.88,3.48-1.62,7.29-2.43,11.58-2.43s11.01,1.54,15.71,4.54,8.02,7.21,9.96,12.47l-8.1,3.81c-1.7-3.81-4.13-6.8-7.29-8.99-3.16-2.19-6.72-3.24-10.61-3.24s-6.88.97-9.15,2.92-3.4,4.37-3.4,7.37.57,4.13,1.78,5.43c1.21,1.38,2.59,2.35,4.13,3.08,1.54.65,2.92,1.21,4.13,1.54l11.34,3.32c5.51,1.62,9.8,4.13,12.88,7.45,3.08,3.4,4.62,7.37,4.62,11.91s-1.05,7.05-3.08,10.04c-2.11,3-4.94,5.26-8.58,6.88-3.64,1.62-7.86,2.51-12.55,2.51l-.08.08Z"/>
  </g>
  <path class="cls-1" d="M160.72,75.01c0-16.09-12.51-29.31-28.32-30.45,2.23-4.31,3.42-9.13,3.42-14.01C135.81,13.7,122.11,0,105.27,0,95.35,0,86.08,4.87,80.38,12.86,74.84,5.08,65.76,0,55.51,0,38.67,0,24.96,13.7,24.96,30.54c0,4.89,1.19,9.7,3.41,14.01C12.54,45.67,0,58.9,0,75.01s12.36,29.15,28.04,30.43c-1.97,4.03-3.08,8.56-3.08,13.34,0,16.84,13.7,30.54,30.54,30.54,9.93,0,19.19-4.86,24.88-12.86,5.54,7.77,14.62,12.86,24.88,12.86,16.84,0,30.54-13.7,30.54-30.54,0-4.63-1.06-9.21-3.07-13.35,15.64-1.31,27.98-14.45,27.98-30.43ZM130.23,70.45c-4.68-6.63-11.92-11.32-20.27-12.62,4.52-5.32,11.1-8.83,18.49-9.3,2.14,3.82,3.36,8.22,3.36,12.9,0,3.17-.56,6.2-1.58,9.02ZM131.81,88.02c0,4.91-1.34,9.51-3.68,13.45-7.5-.57-14.14-4.27-18.61-9.8,8.54-1.2,15.95-5.93,20.7-12.67,1.02,2.82,1.58,5.85,1.58,9.02ZM28.96,88.02c0-3.17.56-6.2,1.58-9.02,3.55,5.03,8.58,8.95,14.45,11.11-5.27,1.94-9.86,5.29-13.31,9.6-1.74-3.53-2.72-7.5-2.72-11.69ZM28.96,61.43c0-4.68,1.22-9.08,3.36-12.9,7.37.49,13.93,4,18.45,9.31-8.33,1.3-15.55,5.99-20.22,12.61-1.02-2.82-1.58-5.85-1.58-9.02ZM56.6,92.28c8.21.34,15.78,4.47,20.53,11.12-4.85,6.81-12.67,10.98-21.12,11.14-1.39-3.22-2.16-6.76-2.16-10.49,0-4.09.95-8.13,2.76-11.77ZM104.17,92.27c1.8,3.64,2.76,7.69,2.76,11.78,0,3.72-.77,7.27-2.16,10.49-8.45-.16-16.26-4.33-21.11-11.13,4.62-6.47,12.06-10.79,20.52-11.14ZM80.39,101.1c-5.21-7.32-13.4-12-22.38-12.74,2.01-4.14,3.07-8.71,3.07-13.35,0-5.05-1.24-9.81-3.42-14.01,9.36-.66,17.56-5.55,22.71-12.77,5.27,7.39,13.58,12.1,22.66,12.77-2.18,4.2-3.42,8.96-3.42,14.01,0,4.78,1.11,9.31,3.08,13.35-9.19.77-17.24,5.62-22.31,12.74ZM104.1,57.05c-8.15-.36-15.68-4.47-20.4-11.06,4.88-6.8,12.75-10.96,21.19-11.09,1.32,3.15,2.05,6.6,2.05,10.22,0,4.15-.98,8.24-2.83,11.92ZM56.67,57.06c-1.85-3.68-2.83-7.77-2.83-11.93,0-3.62.73-7.07,2.05-10.22,8.46.12,16.31,4.28,21.19,11.08-4.61,6.42-12.01,10.71-20.41,11.08ZM109.26,35.19c6.69,1.02,12.57,4.54,16.65,9.58-5.99.84-11.42,3.42-15.78,7.22.52-2.24.8-4.54.8-6.86,0-3.48-.59-6.82-1.67-9.94ZM84.95,38.64c.71-2.58,1.1-5.29,1.1-8.09,0-4.16-.84-8.13-2.35-11.75,8.06,1.01,15,5.63,19.14,12.2-6.68.54-12.96,3.26-17.89,7.64ZM82.05,30.54c0,4.22-.99,8.21-2.75,11.76-5.24-6.51-12.96-10.64-21.36-11.31,4.51-7.14,12.32-11.99,21.27-12.38,1.82,3.59,2.85,7.64,2.85,11.93ZM50.65,52.05c-4.35-3.82-9.8-6.42-15.8-7.27,4.08-5.05,9.96-8.57,16.65-9.59-1.08,3.12-1.67,6.46-1.67,9.94,0,2.34.28,4.67.81,6.93ZM53.42,61.56c2.33,3.95,3.67,8.54,3.67,13.45,0,4.53-1.17,8.97-3.35,12.9-9.05-.6-16.87-5.75-21.19-13.19,4.27-7.35,11.96-12.46,20.87-13.16ZM52.13,92.47c-1.5,3.66-2.28,7.6-2.28,11.59,0,3.58.63,7.02,1.76,10.22-7.28-1.08-13.61-5.13-17.71-10.87,4.2-5.88,10.73-9.98,18.23-10.93ZM75.77,110.86c-.68,2.53-1.05,5.19-1.05,7.93,0,4.1.82,8.01,2.29,11.59-7.92-1.01-14.76-5.52-18.92-11.94,6.62-.56,12.8-3.26,17.68-7.58ZM78.72,118.79c0-4.19.98-8.16,2.72-11.69,5.21,6.5,12.88,10.62,21.24,11.33-4.55,7.02-12.31,11.77-21.19,12.13-1.77-3.55-2.77-7.55-2.77-11.78ZM110.37,98.24c4.21,3.59,9.4,6.07,15.11,6.95-4.07,4.79-9.81,8.12-16.31,9.08,1.14-3.2,1.76-6.63,1.76-10.22,0-1.96-.19-3.9-.56-5.81ZM106.99,87.92c-2.14-3.82-3.36-8.22-3.36-12.9s1.34-9.51,3.68-13.45c8.94.68,16.65,5.8,20.93,13.17-4.33,7.45-12.17,12.61-21.24,13.19ZM105.27,4c14.64,0,26.54,11.91,26.54,26.54,0,4.1-.96,8.15-2.75,11.76-5.18-6.43-12.89-10.72-21.62-11.34-4.59-8.74-13.3-15-23.53-16.18,4.97-6.72,12.9-10.79,21.35-10.79ZM55.51,4c8.74,0,16.51,4.25,21.35,10.79-10.23,1.18-18.93,7.44-23.52,16.18-8.72.62-16.44,4.91-21.62,11.34-1.8-3.64-2.75-7.67-2.75-11.77,0-14.64,11.91-26.54,26.54-26.54ZM4,75.01c0-13.71,10.44-25.02,23.79-26.4-1.81,3.9-2.83,8.24-2.83,12.82s1.1,9.27,3.05,13.29c-1.95,4.02-3.05,8.53-3.05,13.29s1.12,9.37,3.11,13.42c-13.48-1.25-24.08-12.62-24.08-26.43ZM55.51,145.34c-14.64,0-26.54-11.91-26.54-26.54,0-4.19.98-8.16,2.72-11.69,5.2,6.48,12.99,10.81,21.79,11.39,4.65,8.63,13.32,14.78,23.49,15.92-4.96,6.81-12.93,10.93-21.46,10.93ZM105.27,145.34c-8.8,0-16.62-4.31-21.45-10.93,10.17-1.14,18.84-7.29,23.48-15.92,8.8-.58,16.59-4.9,21.79-11.39,1.78,3.62,2.72,7.63,2.72,11.69,0,14.64-11.91,26.54-26.54,26.54ZM132.7,101.43c1.99-4.05,3.11-8.6,3.11-13.42s-1.1-9.27-3.05-13.29c1.95-4.02,3.05-8.53,3.05-13.29s-1.02-8.91-2.83-12.81c13.32,1.41,23.73,12.71,23.73,26.39s-10.56,25.14-24.02,26.42Z"/>
</svg>